<svg xmlns="http://www.w3.org/2000/svg" viewBox="0 0 1200 1600" width="1200" height="1600">
  <defs>
    <linearGradient id="bgGrad" x1="0%" y1="0%" x2="100%" y2="100%">
      <stop offset="0%" style="stop-color:#0a0a0f;stop-opacity:1" />
      <stop offset="100%" style="stop-color:#1a0a1f;stop-opacity:1" />
    </linearGradient>
    <linearGradient id="neonCyan" x1="0%" y1="0%" x2="100%" y2="0%">
      <stop offset="0%" style="stop-color:#00ffcc" />
      <stop offset="100%" style="stop-color:#00ccff" />
    </linearGradient>
    <linearGradient id="neonPurple" x1="0%" y1="0%" x2="100%" y2="0%">
      <stop offset="0%" style="stop-color:#bf00ff" />
      <stop offset="100%" style="stop-color:#ff00aa" />
    </linearGradient>
    <linearGradient id="cardGrad" x1="0%" y1="0%" x2="100%" y2="100%">
      <stop offset="0%" style="stop-color:#151520;stop-opacity:0.95" />
      <stop offset="100%" style="stop-color:#0d0d15;stop-opacity:0.95" />
    </linearGradient>
    <filter id="glowCyan">
      <feGaussianBlur stdDeviation="3" result="coloredBlur"/>
      <feMerge>
        <feMergeNode in="coloredBlur"/>
        <feMergeNode in="SourceGraphic"/>
      </feMerge>
    </filter>
    <filter id="glowPurple">
      <feGaussianBlur stdDeviation="4" result="coloredBlur"/>
      <feMerge>
        <feMergeNode in="coloredBlur"/>
        <feMergeNode in="SourceGraphic"/>
      </feMerge>
    </filter>
    <filter id="shadow">
      <feDropShadow dx="0" dy="4" stdDeviation="8" flood-color="#000" flood-opacity="0.6"/>
    </filter>
  </defs>

  <!-- ФОН -->
  <rect width="1200" height="1600" fill="url(#bgGrad)"/>

  <!-- СЕТКА (Blueprint) -->
  <g opacity="0.05" stroke="#00ffcc" stroke-width="0.5">
    <line x1="0" y1="0" x2="1200" y2="0"/>
    <line x1="0" y1="100" x2="1200" y2="100"/>
    <line x1="0" y1="200" x2="1200" y2="200"/>
    <line x1="0" y1="300" x2="1200" y2="300"/>
    <line x1="0" y1="400" x2="1200" y2="400"/>
    <line x1="0" y1="500" x2="1200" y2="500"/>
    <line x1="0" y1="600" x2="1200" y2="600"/>
    <line x1="0" y1="700" x2="1200" y2="700"/>
    <line x1="0" y1="800" x2="1200" y2="800"/>
    <line x1="0" y1="900" x2="1200" y2="900"/>
    <line x1="0" y1="1000" x2="1200" y2="1000"/>
    <line x1="0" y1="1100" x2="1200" y2="1100"/>
    <line x1="0" y1="1200" x2="1200" y2="1200"/>
    <line x1="0" y1="1300" x2="1200" y2="1300"/>
    <line x1="0" y1="1400" x2="1200" y2="1400"/>
    <line x1="0" y1="1500" x2="1200" y2="1500"/>
    <line x1="100" y1="0" x2="100" y2="1600"/>
    <line x1="200" y1="0" x2="200" y2="1600"/>
    <line x1="300" y1="0" x2="300" y2="1600"/>
    <line x1="400" y1="0" x2="400" y2="1600"/>
    <line x1="500" y1="0" x2="500" y2="1600"/>
    <line x1="600" y1="0" x2="600" y2="1600"/>
    <line x1="700" y1="0" x2="700" y2="1600"/>
    <line x1="800" y1="0" x2="800" y2="1600"/>
    <line x1="900" y1="0" x2="900" y2="1600"/>
    <line x1="1000" y1="0" x2="1000" y2="1600"/>
    <line x1="1100" y1="0" x2="1100" y2="1600"/>
  </g>

  <!-- ШАПКА -->
  <rect x="50" y="30" width="1100" height="80" rx="12" fill="url(#cardGrad)" stroke="#00ffcc" stroke-width="1" filter="url(#shadow)"/>
  <text x="80" y="78" font-family="monospace" font-size="28" font-weight="bold" fill="url(#neonCyan)" filter="url(#glowCyan)">⚡ ЛЫСЫЙ АНАТОЛИЙ</text>
  <text x="980" y="78" font-family="monospace" font-size="14" fill="#666">v2.0 — WCD Framework</text>

  <!-- ГЛАВНЫЙ ЗАГОЛОВОК -->
  <text x="600" y="180" font-family="monospace" font-size="42" font-weight="bold" fill="#ffffff" text-anchor="middle" filter="url(#glowCyan)">WEB CACHE DECEPTION</text>
  <text x="600" y="225" font-family="monospace" font-size="18" fill="#888" text-anchor="middle">Автоматизированный пентест кэширующих прокси с несоответствием разделителей</text>

  <!-- СТАТУС-БАР -->
  <rect x="200" y="260" width="800" height="50" rx="8" fill="url(#cardGrad)" stroke="#bf00ff" stroke-width="1"/>
  <text x="230" y="292" font-family="monospace" font-size="14" fill="#00ffcc">▶ STATUS: READY</text>
  <text x="450" y="292" font-family="monospace" font-size="14" fill="#666">|</text>
  <text x="470" y="292" font-family="monospace" font-size="14" fill="#888">TARGET: lab-portswigger.net</text>
  <text x="750" y="292" font-family="monospace" font-size="14" fill="#666">|</text>
  <text x="770" y="292" font-family="monospace" font-size="14" fill="#00ffcc">BURP: 127.0.0.1:8082 ●</text>

  <!-- БЛОК СХЕМЫ АТАКИ -->
  <text x="600" y="360" font-family="monospace" font-size="22" font-weight="bold" fill="#00ffcc" text-anchor="middle" filter="url(#glowCyan)">▶ АНАТОМИЯ АТАКИ WCD</text>

  <!-- Схема -->
  <rect x="50" y="390" width="1100" height="420" rx="12" fill="url(#cardGrad)" stroke="#333" stroke-width="1" filter="url(#shadow)"/>

  <!-- Фаза 1 -->
  <text x="100" y="430" font-family="monospace" font-size="16" font-weight="bold" fill="#bf00ff" filter="url(#glowPurple)">ФАЗА 1: ПРОГРЕВ КЭША (Жертва с куками)</text>

  <!-- Victim -->
  <rect x="80" y="460" width="140" height="70" rx="8" fill="#1a0a20" stroke="#bf00ff" stroke-width="2"/>
  <text x="150" y="490" font-family="monospace" font-size="13" fill="#fff" text-anchor="middle">👤 ЖЕРТВА</text>
  <text x="150" y="510" font-family="monospace" font-size="10" fill="#888" text-anchor="middle">Cookie: session=abc</text>

  <!-- Стрелка -->
  <line x1="220" y1="495" x2="320" y2="495" stroke="#00ffcc" stroke-width="2" marker-end="url(#arrowCyan)"/>
  <defs><marker id="arrowCyan" markerWidth="10" markerHeight="7" refX="10" refY="3.5" orient="auto"><polygon points="0 0, 10 3.5, 0 7" fill="#00ffcc"/></marker></defs>

  <!-- Cache -->
  <rect x="330" y="450" width="160" height="90" rx="8" fill="#0a1a15" stroke="#00ffcc" stroke-width="2"/>
  <text x="410" y="480" font-family="monospace" font-size="13" fill="#fff" text-anchor="middle">☁ КЭШ (CDN)</text>
  <text x="410" y="500" font-family="monospace" font-size="10" fill="#00ffcc" text-anchor="middle">*.css → CACHE</text>
  <text x="410" y="520" font-family="monospace" font-size="10" fill="#888" text-anchor="middle">/account;.css</text>

  <!-- Стрелка -->
  <line x1="490" y1="495" x2="590" y2="495" stroke="#00ffcc" stroke-width="2" marker-end="url(#arrowCyan)"/>

  <!-- Backend -->
  <rect x="600" y="460" width="150" height="70" rx="8" fill="#0a0a1a" stroke="#00ccff" stroke-width="2"/>
  <text x="675" y="490" font-family="monospace" font-size="13" fill="#fff" text-anchor="middle">🖥 БЭКЕНД</text>
  <text x="675" y="510" font-family="monospace" font-size="10" fill="#888" text-anchor="middle">Обрезает ";"</text>

  <!-- Response -->
  <rect x="770" y="455" width="170" height="80" rx="8" fill="#0d0d20" stroke="#ff00aa" stroke-width="1" stroke-dasharray="4"/>
  <text x="855" y="485" font-family="monospace" font-size="11" fill="#ff00aa" text-anchor="middle">ОТВЕТ БЭКЕНДА</text>
  <text x="855" y="505" font-family="monospace" font-size="10" fill="#fff" text-anchor="middle">api-key=SECRET</text>
  <text x="855" y="520" font-family="monospace" font-size="10" fill="#888" text-anchor="middle">→ КЭШ ЗАПОМИНАЕТ</text>

  <!-- Стрелка кэш -> хранилище -->
  <path d="M 410 540 L 410 570 L 600 570 L 600 590" stroke="#00ffcc" stroke-width="1.5" fill="none" stroke-dasharray="5" marker-end="url(#arrowCyan)"/>

  <!-- Фаза 2 -->
  <text x="100" y="630" font-family="monospace" font-size="16" font-weight="bold" fill="#00ffcc" filter="url(#glowCyan)">ФАЗА 2: ЭКСФИЛЬТРАЦИЯ (Атакующий без кук)</text>

  <!-- Attacker -->
  <rect x="80" y="660" width="140" height="70" rx="8" fill="#0a1a15" stroke="#00ffcc" stroke-width="2"/>
  <text x="150" y="690" font-family="monospace" font-size="13" fill="#fff" text-anchor="middle">💀 АТАКУЮЩИЙ</text>
  <text x="150" y="710" font-family="monospace" font-size="10" fill="#888" text-anchor="middle">(без кук)</text>

  <!-- Стрелка -->
  <line x1="220" y1="695" x2="320" y2="695" stroke="#00ffcc" stroke-width="2" marker-end="url(#arrowCyan)"/>

  <!-- Cache -->
  <rect x="330" y="650" width="160" height="90" rx="8" fill="#0a1a15" stroke="#00ffcc" stroke-width="2"/>
  <text x="410" y="680" font-family="monospace" font-size="13" fill="#fff" text-anchor="middle">☁ КЭШ (CDN)</text>
  <text x="410" y="700" font-family="monospace" font-size="10" fill="#00ffcc" text-anchor="middle">HIT ✓</text>
  <text x="410" y="720" font-family="monospace" font-size="10" fill="#888" text-anchor="middle">Возвращает кэш</text>

  <!-- Стрелка -->
  <line x1="490" y1="695" x2="590" y2="695" stroke="#00ffcc" stroke-width="2" marker-end="url(#arrowCyan)"/>

  <!-- Success -->
  <rect x="600" y="655" width="180" height="80" rx="8" fill="#1a0a0a" stroke="#00ffcc" stroke-width="3"/>
  <text x="690" y="685" font-family="monospace" font-size="14" font-weight="bold" fill="#00ffcc" text-anchor="middle" filter="url(#glowCyan)">✅ УСПЕХ!</text>
  <text x="690" y="705" font-family="monospace" font-size="11" fill="#fff" text-anchor="middle">X-Cache: HIT</text>
  <text x="690" y="720" font-family="monospace" font-size="11" fill="#fff" text-anchor="middle">api-key=SECRET</text>

  <!-- БЛОК ИНСТРУМЕНТАРИЙ -->
  <text x="600" y="870" font-family="monospace" font-size="22" font-weight="bold" fill="#bf00ff" text-anchor="middle" filter="url(#glowPurple)">⚙ ИНСТРУМЕНТАРИЙ «ЛЫСОГО АНАТОЛИЯ»</text>

  <!-- Карточка 1 -->
  <rect x="80" y="910" width="320" height="160" rx="10" fill="url(#cardGrad)" stroke="#333" stroke-width="1" filter="url(#shadow)"/>
  <text x="110" y="945" font-family="monospace" font-size="16" font-weight="bold" fill="#00ffcc">wcd_gun.sh — ПУЛЕМЁТ v7.7</text>
  <text x="110" y="975" font-family="monospace" font-size="12" fill="#aaa">• Одиночные выстрелы (single)</text>
  <text x="110" y="995" font-family="monospace" font-size="12" fill="#aaa">• Полный обстрел (fire)</text>
  <text x="110" y="1015" font-family="monospace" font-size="12" fill="#aaa">• Обоймы разделителей и расширений</text>
  <text x="110" y="1035" font-family="monospace" font-size="12" fill="#aaa">• Интеграция с Burp Suite</text>
  <text x="110" y="1055" font-family="monospace" font-size="12" fill="#aaa">• Логирование в реальном времени</text>

  <!-- Карточка 2 -->
  <rect x="440" y="910" width="320" height="160" rx="10" fill="url(#cardGrad)" stroke="#333" stroke-width="1" filter="url(#shadow)"/>
  <text x="470" y="945" font-family="monospace" font-size="16" font-weight="bold" fill="#bf00ff">wcd_framework.sh — СТЕНД</text>
  <text x="470" y="975" font-family="monospace" font-size="12" fill="#aaa">• Уязвимый Flask-бэкенд</text>
  <text x="470" y="995" font-family="monospace" font-size="12" fill="#aaa">• Nginx (vuln / secure режимы)</text>
  <text x="470" y="1015" font-family="monospace" font-size="12" fill="#aaa">• Горячее переключение конфигов</text>
  <text x="470" y="1035" font-family="monospace" font-size="12" fill="#aaa">• Полная работа в RAM</text>
  <text x="470" y="1055" font-family="monospace" font-size="12" fill="#aaa">• Автоочистка процессов</text>

  <!-- Карточка 3 -->
  <rect x="800" y="910" width="320" height="160" rx="10" fill="url(#cardGrad)" stroke="#333" stroke-width="1" filter="url(#shadow)"/>
  <text x="830" y="945" font-family="monospace" font-size="16" font-weight="bold" fill="#00ccff">DELIMITER DISCREPANCIES</text>
  <text x="830" y="975" font-family="monospace" font-size="12" fill="#aaa">• ; (точка с запятой) — Spring</text>
  <text x="830" y="995" font-family="monospace" font-size="12" fill="#aaa">• ? (вопросительный знак)</text>
  <text x="830" y="1015" font-family="monospace" font-size="12" fill="#aaa">• # (якорь) — клиентская обрезка</text>
  <text x="830" y="1035" font-family="monospace" font-size="12" fill="#aaa">• %00 (Null byte)</text>
  <text x="830" y="1055" font-family="monospace" font-size="12" fill="#aaa">• .. (Path traversal комбо)</text>

  <!-- БЛОК ЛОГА -->
  <text x="600" y="1130" font-family="monospace" font-size="18" font-weight="bold" fill="#00ffcc" text-anchor="middle">📋 ЖИВОЙ ЛОГ АТАКИ</text>

  <rect x="80" y="1160" width="1040" height="180" rx="8" fill="#0a0a0f" stroke="#333" stroke-width="1"/>
  <text x="110" y="1190" font-family="monospace" font-size="12" fill="#00ffcc">[2026-04-15 14:23:01] [LAUNCH] WCD Gun v7.7 | Target: https://lab.web-security-academy.net</text>
  <text x="110" y="1212" font-family="monospace" font-size="12" fill="#888">[2026-04-15 14:23:02] [WARMUP] GET /my-account;.css | Cookie: session=... | Response: 200 OK</text>
  <text x="110" y="1234" font-family="monospace" font-size="12" fill="#888">[2026-04-15 14:23:03] [CHECK] GET /my-account;.css | No Cookie | X-Cache: HIT ✓</text>
  <text x="110" y="1256" font-family="monospace" font-size="12" fill="#00ffcc">[2026-04-15 14:23:04] [SUCCESS] Vector: ;.css | Extracted: "api-key=SECRET-12345-ABCDE"</text>
  <text x="110" y="1278" font-family="monospace" font-size="12" fill="#888">[2026-04-15 14:23:05] [WARMUP] GET /my-account?evil.js | Response: 200 OK</text>
  <text x="110" y="1300" font-family="monospace" font-size="12" fill="#888">[2026-04-15 14:23:06] [CHECK] GET /my-account?evil.js | X-Cache: MISS (retry)</text>
  <text x="110" y="1322" font-family="monospace" font-size="12" fill="#888">[2026-04-15 14:23:07] [CHECK] GET /my-account?evil.js | X-Cache: HIT ✓ | Extracted: "api-key=..."</text>

  <!-- КНОПКА CTA -->
  <rect x="350" y="1420" width="500" height="60" rx="30" fill="#0a0a0f" stroke="#00ffcc" stroke-width="3" filter="url(#shadow)"/>
  <rect x="352" y="1422" width="496" height="56" rx="28" fill="none" stroke="#00ffcc" stroke-width="1" opacity="0.5"/>
  <text x="600" y="1458" font-family="monospace" font-size="20" font-weight="bold" fill="#00ffcc" text-anchor="middle" filter="url(#glowCyan)">💥 ЗАПУСТИТЬ WCD GUN — ПЕНТЕСТ КЭША</text>

  <!-- ПОДВАЛ -->
  <text x="600" y="1540" font-family="monospace" font-size="12" fill="#444" text-anchor="middle">Проект «Лысый Анатолий» — Модульный фреймворк для Web Cache Deception</text>
  <text x="600" y="1565" font-family="monospace" font-size="11" fill="#333" text-anchor="middle">Kwork Portfolio • 2026</text>

  <!-- ДЕКОРАТИВНЫЕ ЭЛЕМЕНТЫ -->
  <circle cx="50" cy="50" r="3" fill="#00ffcc" opacity="0.8"/>
  <circle cx="1150" cy="50" r="3" fill="#bf00ff" opacity="0.8"/>
  <circle cx="50" cy="1550" r="3" fill="#bf00ff" opacity="0.8"/>
  <circle cx="1150" cy="1550" r="3" fill="#00ffcc" opacity="0.8"/>

  <!-- Угловые акценты -->
  <path d="M 70 50 L 70 70 L 50 70" stroke="#00ffcc" stroke-width="2" fill="none" opacity="0.5"/>
  <path d="M 1130 50 L 1130 70 L 1150 70" stroke="#00ffcc" stroke-width="2" fill="none" opacity="0.5"/>
  <path d="M 70 1550 L 70 1530 L 50 1530" stroke="#bf00ff" stroke-width="2" fill="none" opacity="0.5"/>
  <path d="M 1130 1550 L 1130 1530 L 1150 1530" stroke="#bf00ff" stroke-width="2" fill="none" opacity="0.5"/>

</svg>
